<?xml version="1.0" encoding="utf-8"?>
<!-- Generator: Adobe Illustrator 23.0.1, SVG Export Plug-In . SVG Version: 6.00 Build 0)  -->
<svg version="1.1" id="Layer_1.svg_xA0_Image_1_" xmlns="http://www.w3.org/2000/svg" xmlns:xlink="http://www.w3.org/1999/xlink"
	 x="0px" y="0px" viewBox="0 0 2597 714" style="enable-background:new 0 0 2597 714;" xml:space="preserve">
<style type="text/css">
	.st0{fill:#FFFFFF;}
</style>
<g>
	<g>
		<g>
			<path class="st0" d="M2206.1,713.9c-11.9-1.3-23.9-2.2-35.7-3.9c-78.2-11.1-146.6-43.1-204.4-96.9
				c-58.6-54.6-95.6-121.3-109.2-200.4c-3.5-20.3-3.7-41.1-5.3-61.6c-0.1-1.6,0-3.3,0-5.6c2.6,0,4.7,0,6.8,0
				c79.2,0,158.4,0,237.5,0.1c3.9,0,6.8-1,9.7-3.8c57.8-55.8,115.6-111.5,173.5-167.3c20.5-19.8,41-39.6,61.6-59.3
				c1.8-1.8,2.8-3.1,2-5.9c-16.5-57.3,29-112.7,90.6-109.1c43.6,2.5,77,34.2,82.4,77.2c4.6,37.5-19.8,75.5-57,88.5
				c-4.1,1.4-8.4,2.1-12.4,3.7c-2,0.8-4.5,2.4-5.3,4.2c-23.8,56.3-47.4,112.7-71.1,169c-0.2,0.6-0.4,1.2-0.8,2.5
				c76,0,151.5,0,227.9,0c0,2.9,0,5.1,0,7.4c-0.9,91-31.5,170.7-92.6,238c-64.3,70.8-145,110.2-239.9,121.1
				c-7.4,0.8-14.9,1.4-22.3,2.1C2230.1,713.9,2218.1,713.9,2206.1,713.9z"/>
			<path class="st0" d="M-0.3,222.8c1-10.4,1.7-20.9,2.9-31.2c5.6-48,22.7-90.9,57.2-125.7C90.4,35.1,128,18.8,170.6,13.8
				c31.4-3.7,62.5-1.8,92.9,7.9c13.7,4.4,13.6,4.4,10.6,18.2c-4.4,20.3-8.8,40.7-13.1,61c-0.2,1-0.5,1.9-0.9,3.5
				c-1.8-0.7-3.5-1.3-5.1-1.9c-24.4-9.8-49.7-13.4-75.4-7.9c-33.7,7.1-57.9,27.5-70.1,59.4c-17.6,46.2-18.4,93.6-1.7,140.3
				c14.4,40.2,47.4,62.6,90.1,63.7c19.8,0.5,39.2-2.2,58.1-8.1c1.4-0.4,2.8-0.7,4.7-1.2c2.4,16.3,4.8,32.2,7.2,48.2
				c1.2,7.9,2.2,15.8,3.7,23.7c0.7,3.7-0.3,5.3-3.8,6.6c-18.7,6.6-38,9.8-57.6,11.2c-32.2,2.3-64,0.4-94.6-10.8
				c-47.4-17.4-79.2-50.8-97.9-97.1c-10.5-26-15.7-53.2-17.1-81.2c-0.1-2.1-0.5-4.3-0.8-6.4C-0.3,236.2-0.3,229.5-0.3,222.8z"/>
			<path class="st0" d="M1099.9,713.9c-3.9-0.8-7.8-1.4-11.7-2.3c-21.6-5.1-36.7-18.4-44.2-38.9c-11.1-30.3-10-60.6,4.9-89.6
				c13.8-26.9,41.7-39.1,70.2-31.5c21.3,5.7,31.9,21.5,38,41.3c4.2,13.9,4.8,28.1,4.1,42.6c-0.2,3.8-2,4.2-5.1,4.2
				c-27.5-0.1-55,0-82.5,0c-1.8,0-3.6,0-5.4,0c-3.9,23.4,14.4,46.6,38.1,48c7.1,0.4,14.4,0,21.4-1c7-1.1,13.8-3.4,21.3-5.4
				c1.6,7.3,3.3,15,5,23c-10.4,5.2-21.2,7.4-32.2,8.8c-1.6,0.2-3.2,0.6-4.8,0.9C1111.3,713.9,1105.6,713.9,1099.9,713.9z
				 M1131.3,615.3c1.1-10-2.5-23.4-8.2-30.9c-9-11.9-27-14.4-38.6-5c-11.2,9.1-14.9,21.8-16.6,35.8
				C1089.3,615.3,1110.3,615.3,1131.3,615.3z"/>
			<path class="st0" d="M1657,713.9c-0.3-0.2-0.5-0.5-0.8-0.6c-20.4-3.1-29.2-17.6-31.3-33.8c-1.1-7.9-1.6-15.9-1.6-23.9
				c-0.2-23.8-0.1-47.7-0.1-71.5c0-1.8,0-3.6,0-5.9c-6.9,0-13.4,0-20.3,0c0-8.5,0-16.5,0-25.2c6.5,0,13.1,0,20.3,0
				c0-8.2,0.2-15.9-0.1-23.5c-0.2-3.8,0.9-5.7,4.7-6.8c8.6-2.5,17-5.5,26.3-8.6c0,13.2,0,25.7,0,38.7c11.9,0,23.2,0,34.8,0
				c0,8.6,0,16.6,0,25.2c-11.4,0-22.6,0-34.3,0c-0.1,2.1-0.3,3.7-0.3,5.3c0,24-0.1,48,0,72c0,4.5,0.3,9,0.9,13.4
				c1.8,13.1,8.4,18.3,21.5,17.3c3.1-0.2,6.2-0.8,9.9-1.3c0.3,8.1,0.8,15.9,0.9,23.6c0,0.9-1.7,2.3-2.9,2.7c-4.1,1.2-8.4,2-12.6,2.9
				C1667,713.9,1662,713.9,1657,713.9z"/>
			<path class="st0" d="M1524,713.9c-8.9-2.6-17.8-5.1-26.6-7.7c-4.6-1.3-5.6-4-3.9-8.6c2.2-6,3.6-12.4,5.5-19.1
				c3.6,1.7,6.8,3.4,10.1,4.8c10.1,4.3,20.5,7,31.6,4.8c7.8-1.6,13.6-5.7,15.6-13.6c2.1-8.1,0.9-16-5.8-21.4
				c-5.2-4.3-11.4-7.3-17.3-10.7c-6.2-3.6-12.8-6.5-18.6-10.6c-15.1-11-21.7-25.8-17.8-44.4c3.8-18.3,15.2-30.2,33-35.2
				c16.6-4.7,32.9-2.7,48.7,4.6c3,1.4,3.8,3.1,2.8,6.2c-2.1,6.6-4,13.3-6.1,20.4c-8.8-5.3-17.5-8.6-27.2-8.9
				c-12.6-0.4-21.5,6.9-22,18.2c-0.3,5.9,1.7,11.1,6.6,14.4c5.9,4,12.3,7.2,18.4,10.8c6,3.5,12.4,6.5,18,10.5
				c17.5,12.8,21.4,30.7,16.8,50.7c-4.5,19.1-18.1,29-36.6,33.2c-2.7,0.6-5.5,1.2-8.2,1.8C1535.3,713.9,1529.7,713.9,1524,713.9z"/>
			<path class="st0" d="M812.9,713.9c-6.1-1.5-12.4-2.5-18.3-4.6c-19.6-7.2-32.2-21.5-38.8-40.9c-7.6-22.4-7.9-45.2-0.5-67.7
				c11.4-35.1,42.3-54.7,79.3-50.6c6.7,0.7,13.3,2.9,19.9,4.4c4,0.9,5.3,2.8,4,7.2c-2.1,6.6-3.4,13.5-5,20.3
				c-5.8-1.7-11.1-3.8-16.6-4.7c-25.8-4.2-44.7,8.1-51.8,33.3c-3.9,14-4,28-0.3,42c7.1,26.4,29.1,39.3,55.6,32.7
				c4.5-1.1,8.9-2.7,14-4.3c1.3,7.8,2.7,15.4,3.8,23.1c0.1,1-1.6,2.9-2.8,3.2c-7.5,2.2-15.1,4-22.6,5.9c-1.3,0.3-2.6,0.6-3.8,0.8
				C823.5,713.9,818.2,713.9,812.9,713.9z"/>
			<path class="st0" d="M703.4,433.6c-30.6,0-60.5,0-90.9,0c0-144.5,0-288.9,0-433.5c30.2,0,60.2,0,90.7,0c0,54.4,0,108.8,0,164.7
				c4.6-4.9,8.1-8.8,11.6-12.5c17-18,38-27.1,62.5-27.4c37.4-0.4,63.4,17.3,78.3,51.4c7.2,16.4,11.7,33.7,12.1,51.4
				c1,44.6,1.1,89.3,1.4,133.9c0.2,22,0,44,0,66c0,1.8,0,3.6,0,5.8c-30.4,0-60.5,0-91.2,0c0-2.1,0-4,0-6c0-58.3,0-116.7-0.1-175
				c0-10.5-2.4-20.7-6.5-30.4c-10.8-25.9-44.5-23.2-57.7-6.2c-9,11.6-10.2,25-10.2,38.7c-0.1,57.5,0,115,0,172.5
				C703.4,429.1,703.4,431.3,703.4,433.6z"/>
			<path class="st0" d="M1371.1,433.5c0-2.3,0-4.2,0-6.2c-0.1-59.5,0.2-119-0.4-178.5c-0.1-9.3-2.7-19.2-6.3-27.9
				c-8.4-19.9-34.6-24.2-51.7-9.3c-11.8,10.3-15.5,24-15.6,38.6c-0.4,59-0.3,118-0.3,177c0,2,0,3.9,0,6.3c-30.5,0-60.5,0-92.1,0
				c0-100.6,0-201.3,0-302.3c24.7,0,50.6,0,76.9,0c1.6,12.4,3.1,24.9,4.8,38.1c1.2-1.1,2.1-1.7,2.7-2.5c21-29.1,49.5-43.1,85.2-41.8
				c38.7,1.4,66.7,23.8,79.6,62.8c6.7,20.5,8.6,41.6,8.7,62.9c0.1,59.3,0,118.7,0,178c0,1.5-0.2,2.9-0.3,4.8
				C1432.1,433.5,1402,433.5,1371.1,433.5z"/>
			<path class="st0" d="M295.5,290.7c0.6-32.6,3.5-58.3,13.5-82.4c21.3-51.3,60.2-79.3,115.6-83.1c38.2-2.6,73.2,6.6,101.2,34.5
				c19.6,19.4,31.6,43.2,37.5,69.9c9.6,43.1,8.6,85.9-7.2,127.3c-20.9,54.9-75.1,87.5-133.8,82.7c-35.6-2.9-66.2-15.3-90.2-42.4
				c-17.8-20.2-27.8-44.1-32.4-70.3C297.3,312.7,296.4,298.4,295.5,290.7z M476.7,277.1c-0.5-5.3-0.9-15.7-2.4-25.8
				c-2.2-14.7-5.6-29.2-14.1-41.8c-13.9-20.6-40.8-20.8-54.8-0.3c-3.9,5.7-7.2,12.1-9.3,18.7c-9.6,30.2-9.7,61-4.5,91.9
				c2.2,13,6,25.7,14.2,36.4c14.7,19.4,40.2,18.9,54-1.1c2.7-3.9,4.9-8.3,6.7-12.8C474.4,323.1,476.3,302.7,476.7,277.1z"/>
			<path class="st0" d="M997.8,316.1c1.4,15.5,6.8,28.2,19.1,37.4c13.3,9.9,28.6,13.9,44.9,14.7c24,1.1,47.5-2.7,70.4-9.7
				c1.4-0.4,2.8-0.9,4.3-1.3c0.5-0.1,1-0.1,2.2-0.1c3.9,21.7,7.9,43.3,12,65.9c-6.7,2.2-13.2,4.7-19.8,6.5
				c-37.5,10.1-75.5,13.6-113.7,6.3c-53.6-10.2-87.5-42.8-100.5-95.5c-12.6-50.7-9-100.4,15.9-147.1
				c38.5-72.4,112.9-78.3,158.5-60.6c32.4,12.6,52.4,37.2,63.3,69.7c9.3,27.7,11.3,56.4,10.8,85.3c-0.1,7.5-1.2,14.9-1.4,22.4
				c-0.2,4.8-1.9,6.3-6.9,6.3c-50.8-0.2-101.7-0.2-152.5-0.2C1002.2,316.1,1000.3,316.1,997.8,316.1z M997.2,250.2
				c28.4,0,56,0,83.9,0c0.4-14.4-2.4-27.7-8.4-40.4c-10.1-21.4-39.3-26.3-55.9-9.4C1003.3,214.1,999.2,231.5,997.2,250.2z"/>
			<path class="st0" d="M1676.7,207.3c-13.1-6.6-26.1-11.8-40-13.8c-9.9-1.5-19.9-2.1-29.6,1.4c-7.6,2.7-12.7,7.8-14.2,15.9
				c-1.6,8.3,1.3,15.3,8,19.6c9.2,6,18.8,11.3,28.7,16c14.5,6.8,28.8,13.8,41.3,24.1c22.2,18.4,33.3,42.1,33,70.8
				c-0.3,32.7-12,59.8-40.3,78.1c-14,9.1-29.6,14.5-46,17c-35.6,5.6-70.4,3.2-104.1-10.4c-13.8-5.6-13.7-5.7-10.4-19.9
				c3.9-16.9,7.8-33.7,11.7-50.6c0.3-1.3,0.7-2.5,1.1-3.7c9.4,3.9,18.4,8.1,27.7,11.4c17.1,5.9,34.7,9.7,53,6.6
				c9.5-1.6,17.8-5.5,20.2-16c2.5-11-1.4-19.9-10.8-25.8c-7.3-4.6-15-8.5-22.9-12.1c-15.1-6.8-29.7-14.3-42.7-24.6
				c-51.1-40-37.6-106-5.1-136.8c20.2-19.2,44.8-27.4,71.9-29.5c27.5-2.1,54.1,2.4,79.6,12.8c4.3,1.7,6.1,3.5,4.7,8.8
				c-4.8,18.5-8.9,37.2-13.3,55.8C1677.8,204,1677.3,205.4,1676.7,207.3z"/>
			<path class="st0" d="M1300.8,577.2c5-5.6,9.2-11.5,14.5-16.2c17-15.1,43.3-15.5,59-1c9.8,9.1,14.7,20.9,16.6,33.9
				c1.1,7.6,1.8,15.2,1.8,22.9c0.2,29.7,0.1,59.3,0.1,89c0,1.5-0.2,2.9-0.3,4.6c-10.2,0-20.1,0-30.6,0c0-2.2,0-4.2,0-6.1
				c-0.1-30,0.3-60-0.4-90c-0.2-7.9-2.3-16.3-5.3-23.6c-5.8-13.9-21.9-17.8-34.3-9c-11.5,8.1-14.7,20.2-14.7,33.3
				c-0.2,29.7-0.1,59.3-0.1,89c0,2,0,4,0,6.4c-10.2,0-20.1,0-30.7,0c0-2.1,0-4.1,0-6c0-28.5,0-57,0-85.5c0-9.2-0.5-18.3-4.3-26.9
				c-6.7-15.3-23.1-19.4-36.3-9.2c-8.8,6.8-12.7,16.1-13.7,26.7c-0.5,5.3-0.4,10.7-0.4,16c0,26.3,0,52.7,0,79c0,1.8,0,3.6,0,5.9
				c-10.2,0-20.1,0-30.9,0c0-52.1,0-104.3,0-156.9c8.1,0,16.9,0,26,0c0.5,7.2,1.1,14.2,1.8,22.7c10.4-16.4,23.6-26.2,42.7-26.3
				C1281,549.6,1293.6,559.8,1300.8,577.2z"/>
			<path class="st0" d="M1007.2,710.4c-10.4,0-20.3,0-30.8,0c0-2.2,0-4.2,0-6.1c-0.1-31.2-0.1-62.3-0.6-93.5
				c-0.1-5.7-1.9-11.4-3.7-16.9c-5.9-17.8-25.6-20-37.8-12.6c-13.2,8-17.2,20.6-17.2,35c-0.1,29.3,0,58.7,0,88c0,2,0,3.9,0,6.1
				c-10.5,0-20.4,0-30.7,0c0-76.2,0-152.2,0-228.5c10.1,0,20,0,30.5,0c0,30.4,0,60.7,0,91.1c0.3,0.1,0.7,0.3,1,0.4
				c1-1.2,1.9-2.4,2.9-3.6c14.7-19.4,39.8-25.7,60-14.7c14.1,7.6,21.1,20.6,24.1,35.6c1.8,8.6,2.6,17.5,2.7,26.3
				c0.3,29.8,0.1,59.7,0.1,89.5C1007.5,707.5,1007.4,708.6,1007.2,710.4z"/>
			<path class="st0" d="M1461.8,710.2c-10.4,0-20.3,0-30.5,0c0-52.3,0-104.3,0-156.7c10.1,0,20.1,0,30.5,0
				C1461.8,605.7,1461.8,657.8,1461.8,710.2z"/>
			<path class="st0" d="M1428.7,509.4c0.1-11.5,7.7-19.4,18.5-19.3c10.6,0.1,18.1,8.3,18,19.8c-0.1,11.6-7.8,19.4-19.1,19.2
				C1435.7,528.9,1428.6,520.8,1428.7,509.4z"/>
		</g>
	</g>
</g>
</svg>
